<svg width="157" height="301" viewBox="0 0 157 301" fill="none" xmlns="http://www.w3.org/2000/svg">
<g clip-path="url(#clip0_12_79)">
<mask id="path-1-inside-1_12_79" fill="white">
<path fill-rule="evenodd" clip-rule="evenodd" d="M380.645 332.724C363.642 316.444 340.454 296.355 314.56 290.424C306.454 288.568 298.082 288.098 289.552 289.566C283.431 288.318 277.164 287.875 270.796 288.471C270.187 288.315 269.576 288.167 268.963 288.027C264.35 286.97 259.65 286.363 254.883 286.306C252.626 285.567 250.344 284.928 248.042 284.401C247.324 284.236 246.605 284.083 245.883 283.941C229.701 269.11 209.119 253.085 186.465 247.897C173.509 244.929 159.871 245.505 145.996 251.874C132.123 258.243 118.035 270.393 104.158 290.536C71.8373 337.454 71.1483 380.412 70.6173 413.465V413.467V413.494C70.5683 416.553 70.5203 419.527 70.4493 422.411C70.0263 439.46 68.7743 453.299 61.6448 463.099C54.5298 472.879 41.4951 478.713 17.2981 479.548L17.2977 480.137C41.5439 479.3 54.8007 473.453 62.0774 463.451C69.3393 453.47 70.5793 439.428 71.0013 422.407C71.0733 419.511 71.1213 416.527 71.1703 413.459C71.7023 380.413 72.3903 337.63 104.6 290.875C118.432 270.796 132.445 258.729 146.2 252.415C159.953 246.101 173.471 245.527 186.332 248.473C208.52 253.555 228.743 269.11 244.794 283.735C244.272 283.64 243.748 283.552 243.223 283.469C242.368 283.102 241.508 282.748 240.645 282.407C227.847 272.587 213.341 263.988 197.868 260.444C184.912 257.476 171.274 258.052 157.399 264.422C143.526 270.79 129.438 282.94 115.561 303.083C83.2403 350.001 82.5513 392.959 82.0213 426.012L82.0203 426.018V426.027C81.9713 429.091 81.9233 432.069 81.8523 434.958C81.4293 452.007 80.1783 465.846 73.0483 475.646C65.9333 485.426 52.8983 491.26 28.7012 492.095L28.7008 492.684C52.947 491.847 66.2043 486 73.4803 475.998C80.7423 466.017 81.9833 451.975 82.4043 434.954C82.4753 432.088 82.5233 429.135 82.5723 426.1V426.075L82.5733 426.064V426.057V426.037V426.031V426.012L82.5743 426.007C83.1053 392.96 83.7933 350.178 116.003 303.422C129.835 283.343 143.848 271.276 157.603 264.962C171.356 258.648 184.874 258.074 197.735 261.02C212.472 264.396 226.342 272.391 238.699 281.665C238.521 281.6 238.342 281.535 238.164 281.47C229.897 276.681 221.147 272.859 212.064 270.778C199.108 267.811 185.47 268.386 171.595 274.756C157.722 281.125 143.633 293.275 129.757 313.418C97.4363 360.335 96.7473 403.294 96.2163 436.347C96.1673 439.416 96.1193 442.399 96.0473 445.293C95.6253 462.342 94.3733 476.181 87.2433 485.981C80.1283 495.761 67.0943 501.595 42.8968 502.43L42.8964 503.019C67.1423 502.182 80.3993 496.334 87.6763 486.333C94.9383 476.351 96.1783 462.31 96.6003 445.289C96.6713 442.423 96.7193 439.47 96.7683 436.435V436.409V436.399V436.392L96.7693 436.372V436.366V436.346V436.341C97.3013 403.295 97.9893 360.512 130.199 313.757C144.031 293.678 158.043 281.611 171.799 275.296C185.552 268.983 199.07 268.409 211.931 271.355C219.957 273.193 227.726 276.402 235.133 280.441C233.08 279.787 231.008 279.216 228.918 278.738C215.962 275.77 202.324 276.346 188.449 282.716C174.576 289.084 160.487 301.234 146.611 321.377C114.29 368.295 113.601 411.253 113.07 444.306C113.021 447.375 112.973 450.359 112.901 453.252C112.479 470.301 111.227 484.14 104.097 493.94C96.9823 503.72 83.9483 509.554 59.7509 510.389L59.7505 510.978C83.9963 510.141 97.2533 504.294 104.53 494.292C111.792 484.311 113.032 470.269 113.454 453.248C113.525 450.382 113.573 447.429 113.622 444.394V444.369V444.358V444.351L113.623 444.331V444.325V444.306V444.301C114.155 411.254 114.843 368.472 147.053 321.716C160.885 301.637 174.898 289.57 188.653 283.256C202.406 276.942 215.924 276.368 228.785 279.314C231.873 280.022 234.922 280.932 237.928 282.014C238.488 282.338 239.046 282.668 239.601 283.001C229.215 281.948 218.467 283.377 207.573 288.378C193.7 294.747 179.611 306.897 165.735 327.04C133.414 373.958 132.725 416.916 132.194 449.969V449.983C132.145 453.047 132.097 456.026 132.025 458.915C131.603 475.964 130.351 489.803 123.221 499.603C116.106 509.383 103.072 515.217 78.8753 516.052L78.8743 516.641C103.12 515.804 116.377 509.957 123.654 499.955C130.916 489.974 132.156 475.932 132.578 458.911C132.65 456.016 132.698 453.031 132.747 449.963C133.279 416.917 133.967 374.135 166.177 327.379C180.009 307.3 194.022 295.233 207.777 288.919C219.019 283.758 230.103 282.432 240.8 283.729C241.801 284.344 242.795 284.972 243.78 285.613C244.328 286.052 244.873 286.493 245.414 286.936C239.834 287.755 234.184 289.393 228.494 292.005C214.621 298.373 200.533 310.523 186.656 330.667C154.335 377.584 153.646 420.542 153.116 453.595C153.066 456.664 153.019 459.648 152.947 462.541C152.524 479.59 151.273 493.43 144.143 503.23C137.028 513.009 123.993 518.843 99.7963 519.678V520.267C124.042 519.43 137.299 513.583 144.575 503.581C151.837 493.6 153.078 479.558 153.5 462.537C153.571 459.671 153.618 456.719 153.667 453.683L153.668 453.658V453.647V453.641V453.62V453.614L153.669 453.595V453.59C154.2 420.543 154.889 377.761 187.098 331.005C200.93 310.926 214.943 298.86 228.698 292.545C234.528 289.869 240.315 288.224 246.028 287.441C248.296 289.31 250.502 291.202 252.642 293.091C252.022 293.353 251.402 293.627 250.781 293.912C236.909 300.28 222.82 312.43 208.944 332.573C176.623 379.491 175.933 422.449 175.403 455.502V455.503C175.354 458.572 175.306 461.555 175.234 464.448C174.812 481.497 173.56 495.336 166.43 505.136C159.315 514.916 146.28 520.75 122.083 521.585V522.174C146.329 521.337 159.586 515.49 166.863 505.488C174.125 495.507 175.365 481.465 175.787 464.444C175.858 461.554 175.906 458.576 175.956 455.514V455.497C176.488 422.45 177.176 379.668 209.386 332.912C223.218 312.833 237.23 300.766 250.986 294.452C251.698 294.125 252.41 293.813 253.122 293.516C256.173 296.223 259.088 298.923 261.852 301.544C251.98 308.577 242.064 318.823 232.253 333.064C199.932 379.981 199.242 422.94 198.712 455.992V455.999V456.005V456.011C198.663 459.073 198.615 462.051 198.543 464.939C198.121 481.988 196.869 495.827 189.739 505.627C182.624 515.406 169.589 521.241 145.392 522.076V522.665C169.638 521.828 182.895 515.98 190.172 505.979C197.434 495.997 198.674 481.956 199.096 464.935C199.168 462.041 199.216 459.059 199.265 455.993V455.987C199.797 422.94 200.485 380.158 232.695 333.403C242.515 319.147 252.426 308.93 262.272 301.943C262.711 302.36 263.145 302.775 263.576 303.188L263.953 302.743C263.558 302.365 263.159 301.984 262.757 301.602C263.127 301.343 263.497 301.089 263.867 300.84C268.849 305.113 273.502 309.435 277.772 313.522L278.149 313.078C273.921 309.03 269.31 304.746 264.37 300.502C265.472 299.77 266.573 299.078 267.674 298.425C277.72 305.743 286.815 314.003 294.626 321.482L295.003 321.037C287.252 313.616 278.216 305.403 268.224 298.101C269.958 297.091 271.689 296.176 273.416 295.353C288.831 304.199 302.6 316.469 313.75 327.145L314.127 326.7C303.07 316.114 289.397 303.916 274.065 295.048C274.142 295.013 274.218 294.977 274.295 294.942C276.467 293.945 278.633 293.091 280.791 292.372C301.7 300.708 320.346 317.055 334.671 330.771L335.048 330.326C320.878 316.759 302.413 300.547 281.665 292.088C284.298 291.253 286.919 290.618 289.526 290.165C290.058 290.274 290.588 290.389 291.118 290.51C316.858 296.406 339.953 316.395 356.959 332.678L357.336 332.233C340.333 315.954 317.145 295.865 291.251 289.934L291.136 289.908C299.069 288.753 306.862 289.268 314.427 291.001C340.167 296.897 363.262 316.886 380.268 333.168L380.645 332.724ZM245.623 284.492L245.454 284.46C245.543 284.501 245.632 284.542 245.721 284.583L245.623 284.492ZM248.495 287.156C249.751 288.332 250.977 289.495 252.173 290.641L252.55 290.196C251.482 289.174 250.389 288.136 249.273 287.087C249.341 287.082 249.409 287.077 249.477 287.071C252.079 288.408 254.638 289.851 257.151 291.38C256.227 291.691 255.303 292.027 254.376 292.387C252.08 290.636 249.73 288.926 247.329 287.278C247.718 287.233 248.107 287.192 248.495 287.156ZM247.581 286.302L247.925 286.622C247.481 286.668 247.037 286.719 246.593 286.775C245.769 286.217 244.94 285.666 244.105 285.123C243.629 284.742 243.151 284.362 242.671 283.983C242.801 284.002 242.932 284.022 243.062 284.043C244.443 284.636 245.812 285.263 247.171 285.921C247.308 286.048 247.445 286.175 247.581 286.302ZM247.485 285.418C247.233 285.185 246.981 284.951 246.727 284.717C247.122 284.8 247.515 284.887 247.909 284.977C249.597 285.364 251.273 285.811 252.938 286.314C251.828 286.336 250.716 286.388 249.6 286.472C248.898 286.113 248.193 285.761 247.485 285.418ZM253.24 292.842C251.839 291.602 250.409 290.36 248.951 289.123C250.571 290.271 252.168 291.445 253.74 292.639C253.574 292.706 253.407 292.773 253.24 292.842ZM262.336 301.202C259.61 298.615 256.734 295.947 253.722 293.269L253.841 293.221L253.937 293.183C254.001 293.157 254.066 293.131 254.131 293.105L254.277 293.048C257.429 295.459 260.48 297.948 263.418 300.456C263.057 300.7 262.697 300.949 262.336 301.202ZM263.92 300.117C265.004 299.393 266.088 298.708 267.17 298.059C264.129 295.861 261.002 293.751 257.798 291.777C256.839 292.091 255.878 292.432 254.915 292.8C258.021 295.185 261.027 297.643 263.92 300.117ZM257.883 291.139C255.499 289.676 253.072 288.288 250.607 286.994C252.003 286.912 253.394 286.88 254.78 286.895C257.387 287.751 259.963 288.74 262.503 289.843C260.967 290.209 259.427 290.64 257.883 291.139ZM267.719 297.734C264.738 295.571 261.674 293.492 258.534 291.541C260.159 291.032 261.78 290.598 263.395 290.235C266.593 291.661 269.733 293.265 272.808 295.007C271.115 295.827 269.418 296.735 267.719 297.734ZM273.834 294.521L273.944 294.469L274.091 294.402C276.05 293.502 278.006 292.718 279.955 292.043C276.927 290.871 273.852 289.868 270.737 289.067C268.624 289.268 266.5 289.585 264.367 290.026C267.453 291.433 270.485 293.002 273.455 294.698C273.581 294.638 273.707 294.579 273.834 294.521ZM263.467 289.621C265.342 289.207 267.21 288.888 269.069 288.659L268.967 288.635L268.83 288.603C264.868 287.696 260.843 287.122 256.768 286.948C259.027 287.746 261.26 288.642 263.467 289.621ZM280.824 291.749C278.085 290.664 275.306 289.715 272.493 288.926C277.728 288.584 282.893 288.94 287.963 289.862C285.594 290.336 283.214 290.961 280.824 291.749ZM177.646 233.527C203.54 239.458 226.728 259.547 243.731 275.826L243.354 276.271C226.348 259.988 203.253 239.999 177.513 234.103C164.652 231.157 151.134 231.731 137.381 238.045C123.626 244.359 109.613 256.426 95.7813 276.505C63.5715 323.261 62.8832 366.043 62.3516 399.089C62.3022 402.157 62.2542 405.142 62.1824 408.037C61.7607 425.058 60.5202 439.1 53.2584 449.081C45.9816 459.083 32.7247 464.93 8.47859 465.767L8.47899 465.178C32.676 464.343 45.7107 458.509 52.8257 448.729C59.9557 438.929 61.2073 425.09 61.6298 408.041C61.7014 405.15 61.7493 402.169 61.7984 399.103L61.7986 399.095C62.329 366.042 63.0183 323.084 95.3393 276.166C109.215 256.023 123.304 243.873 137.177 237.504C151.052 231.135 164.69 230.559 177.646 233.527ZM237.016 260.115C220.013 243.836 196.826 223.747 170.931 217.816C157.975 214.848 144.337 215.424 130.462 221.793C116.589 228.162 102.501 240.312 88.6243 260.455C56.3037 307.373 55.6144 350.331 55.084 383.384C55.0347 386.453 54.9868 389.437 54.9152 392.33C54.4927 409.379 53.2411 423.218 46.1111 433.018C38.9961 442.798 25.9614 448.632 1.76429 449.467L1.76389 450.056C26.0102 449.219 39.267 443.372 46.5437 433.37C53.8056 423.389 55.046 409.347 55.4678 392.326C55.5393 389.442 55.5872 386.47 55.6364 383.414L55.6369 383.384L55.637 383.379C56.1686 350.332 56.8569 307.55 89.0663 260.794C102.898 240.715 116.911 228.648 130.666 222.334C144.419 216.02 157.937 215.446 170.798 218.392C196.539 224.288 219.634 244.277 236.639 260.56L237.016 260.115ZM165.731 201.209C191.625 207.14 214.813 227.229 231.816 243.508L231.439 243.953C214.433 227.671 191.338 207.681 165.597 201.785C152.736 198.84 139.219 199.413 125.466 205.727C111.71 212.041 97.6983 224.108 83.8663 244.187C51.6561 290.943 50.9678 333.725 50.4362 366.772C50.3868 369.84 50.3388 372.824 50.2671 375.719C49.8453 392.74 48.6048 406.782 41.343 416.763C34.0662 426.765 20.8094 432.612 -3.43681 433.449L-3.43651 432.86C20.7606 432.025 33.7953 426.191 40.9103 416.411C48.0403 406.611 49.2919 392.772 49.7144 375.723C49.7861 372.83 49.834 369.846 49.8832 366.777C50.4136 333.724 51.1029 290.766 83.4243 243.848C97.3003 223.705 111.389 211.555 125.261 205.187C139.137 198.817 152.774 198.241 165.731 201.209ZM227.557 226.375C210.554 210.096 187.366 190.007 161.472 184.076C148.516 181.108 134.878 181.684 121.003 188.054C107.13 194.422 93.0423 206.572 79.1653 226.715C46.8444 273.633 46.1551 316.591 45.6247 349.644C45.5755 352.713 45.5276 355.697 45.4559 358.59C45.0334 375.639 43.7818 389.478 36.6518 399.278C29.5368 409.058 16.5021 414.892 -7.69501 415.727L-7.69541 416.316C16.5508 415.479 29.8077 409.632 37.0844 399.63C44.3463 389.649 45.5868 375.607 46.0085 358.586C46.0803 355.691 46.1283 352.707 46.1777 349.639C46.7093 316.592 47.3976 273.81 79.6073 227.054C93.4393 206.975 107.452 194.908 121.207 188.594C134.96 182.28 148.478 181.706 161.339 184.652C187.079 190.548 210.174 210.537 227.18 226.82L227.557 226.375ZM157.674 166.693C183.568 172.624 206.756 192.713 223.759 208.993L223.382 209.437C206.377 193.155 183.282 173.165 157.541 167.269C144.68 164.323 131.162 164.897 117.409 171.211C103.654 177.525 89.6413 189.592 75.8093 209.671C43.5999 256.427 42.9116 299.209 42.3799 332.256C42.3306 335.324 42.2825 338.308 42.2108 341.204C41.789 358.224 40.5485 372.266 33.2867 382.247C26.0099 392.249 12.7531 398.097 -11.4931 398.933L-11.4927 398.344C12.7043 397.509 25.739 391.675 32.854 381.896C39.984 372.096 41.2356 358.257 41.6581 341.207C41.7298 338.314 41.7777 335.33 41.8269 332.261C42.3573 299.209 43.0467 256.25 75.3673 209.333C89.2443 189.19 103.332 177.039 117.205 170.67C131.08 164.301 144.718 163.725 157.674 166.693ZM220.039 191.57C203.036 175.29 179.848 155.201 153.954 149.27C140.998 146.303 127.36 146.878 113.485 153.248C99.6123 159.617 85.5243 171.767 71.6473 191.91C39.3264 238.828 38.6371 281.786 38.1067 314.839C38.0575 317.908 38.0096 320.892 37.9379 323.785C37.5154 340.834 36.2638 354.673 29.1338 364.473C22.0188 374.253 8.98409 380.087 -15.213 380.922L-15.2133 381.511C9.03289 380.674 22.2897 374.827 29.5665 364.825C36.8283 354.844 38.0688 340.802 38.4906 323.781C38.5623 320.886 38.6103 317.902 38.6597 314.834C39.1913 281.787 39.8796 239.005 72.0893 192.249C85.9213 172.17 99.9343 160.103 113.689 153.788C127.442 147.475 140.96 146.901 153.821 149.847C179.562 155.743 202.656 175.732 219.662 192.015L220.039 191.57ZM150.023 131.958C175.918 137.889 199.105 157.978 216.108 174.258L215.732 174.702C198.726 158.42 175.631 138.43 149.89 132.534C137.029 129.589 123.511 130.162 109.759 136.476C96.0033 142.791 81.9913 154.857 68.1583 174.936C35.949 221.692 35.2608 264.474 34.7291 297.521L34.729 297.526L34.7285 297.557C34.6793 300.612 34.6314 303.584 34.56 306.469C34.1382 323.489 32.8977 337.531 25.6359 347.512C18.3591 357.514 5.10229 363.362 -19.1439 364.199L-19.1435 363.609C5.05349 362.774 18.0882 356.94 25.2032 347.161C32.3332 337.361 33.5848 323.522 34.0073 306.473C34.0789 303.582 34.1267 300.602 34.1759 297.536L34.176 297.532L34.1761 297.526C34.7065 264.474 35.3958 221.515 67.7173 174.598C81.5933 154.455 95.6823 142.304 109.554 135.936C123.43 129.566 137.067 128.99 150.023 131.958ZM211.756 157.176C194.753 140.896 171.565 120.807 145.671 114.876C132.715 111.908 119.077 112.484 105.202 118.854C91.3293 125.222 77.2413 137.373 63.3646 157.516C31.0436 204.433 30.3542 247.392 29.8238 280.444C29.7746 283.514 29.7267 286.497 29.655 289.391C29.2325 306.44 27.9809 320.279 20.851 330.079C13.7359 339.858 0.701187 345.693 -23.4958 346.528L-23.4962 347.117C0.749992 346.28 14.0068 340.432 21.2836 330.431C28.5454 320.449 29.7859 306.408 30.2077 289.387C30.2795 286.491 30.3275 283.507 30.3768 280.439C30.9085 247.393 31.5968 204.61 63.8064 157.854C77.6383 137.775 91.6513 125.709 105.406 119.394C119.159 113.081 132.677 112.507 145.538 115.453C171.279 121.348 194.373 141.338 211.379 157.62L211.756 157.176ZM140.752 98.1115C166.646 104.043 189.834 124.132 206.837 140.411L206.46 140.855C189.454 124.573 166.359 104.584 140.618 98.688C127.757 95.7421 114.24 96.3159 100.487 102.629C86.7313 108.944 72.7193 121.011 58.8869 141.09C26.6772 187.846 25.9889 230.628 25.4572 263.675C25.4079 266.743 25.3599 269.727 25.2881 272.622C24.8663 289.643 23.6258 303.685 16.364 313.666C9.08719 323.668 -4.16961 329.515 -28.4158 330.352L-28.4154 329.763C-4.21831 328.928 8.81639 323.094 15.9314 313.315C23.0614 303.514 24.3129 289.675 24.7354 272.626C24.8072 269.733 24.855 266.749 24.9043 263.68C25.4347 230.627 26.124 187.669 58.4451 140.751C72.3213 120.608 86.4103 108.458 100.282 102.089C114.158 95.7195 127.795 95.1439 140.752 98.1115ZM201.252 124.025C184.249 107.745 161.062 87.6561 135.167 81.7251C122.211 78.7575 108.574 79.3331 94.6983 85.7028C80.8253 92.0713 66.7373 104.222 52.8609 124.365C20.5398 171.282 19.8505 214.241 19.3201 247.293C19.2708 250.363 19.2229 253.346 19.1513 256.24C18.7287 273.289 17.4772 287.128 10.3472 296.928C3.23219 306.708 -9.80251 312.542 -33.9996 313.377L-34 313.966C-9.75381 313.129 3.50299 307.281 10.7798 297.28C18.0416 287.298 19.2821 273.257 19.7039 256.236C19.7757 253.34 19.8237 250.356 19.873 247.288C20.4047 214.242 21.093 171.459 53.3027 124.703C67.1353 104.624 81.1473 92.5577 94.9033 86.243C108.655 79.9295 122.173 79.3557 135.034 82.3016C160.775 88.1974 183.87 108.187 200.876 124.469L201.252 124.025Z"/>
</mask>
<path fill-rule="evenodd" clip-rule="evenodd" d="M380.645 332.724C363.642 316.444 340.454 296.355 314.56 290.424C306.454 288.568 298.082 288.098 289.552 289.566C283.431 288.318 277.164 287.875 270.796 288.471C270.187 288.315 269.576 288.167 268.963 288.027C264.35 286.97 259.65 286.363 254.883 286.306C252.626 285.567 250.344 284.928 248.042 284.401C247.324 284.236 246.605 284.083 245.883 283.941C229.701 269.11 209.119 253.085 186.465 247.897C173.509 244.929 159.871 245.505 145.996 251.874C132.123 258.243 118.035 270.393 104.158 290.536C71.8373 337.454 71.1483 380.412 70.6173 413.465V413.467V413.494C70.5683 416.553 70.5203 419.527 70.4493 422.411C70.0263 439.46 68.7743 453.299 61.6448 463.099C54.5298 472.879 41.4951 478.713 17.2981 479.548L17.2977 480.137C41.5439 479.3 54.8007 473.453 62.0774 463.451C69.3393 453.47 70.5793 439.428 71.0013 422.407C71.0733 419.511 71.1213 416.527 71.1703 413.459C71.7023 380.413 72.3903 337.63 104.6 290.875C118.432 270.796 132.445 258.729 146.2 252.415C159.953 246.101 173.471 245.527 186.332 248.473C208.52 253.555 228.743 269.11 244.794 283.735C244.272 283.64 243.748 283.552 243.223 283.469C242.368 283.102 241.508 282.748 240.645 282.407C227.847 272.587 213.341 263.988 197.868 260.444C184.912 257.476 171.274 258.052 157.399 264.422C143.526 270.79 129.438 282.94 115.561 303.083C83.2403 350.001 82.5513 392.959 82.0213 426.012L82.0203 426.018V426.027C81.9713 429.091 81.9233 432.069 81.8523 434.958C81.4293 452.007 80.1783 465.846 73.0483 475.646C65.9333 485.426 52.8983 491.26 28.7012 492.095L28.7008 492.684C52.947 491.847 66.2043 486 73.4803 475.998C80.7423 466.017 81.9833 451.975 82.4043 434.954C82.4753 432.088 82.5233 429.135 82.5723 426.1V426.075L82.5733 426.064V426.057V426.037V426.031V426.012L82.5743 426.007C83.1053 392.96 83.7933 350.178 116.003 303.422C129.835 283.343 143.848 271.276 157.603 264.962C171.356 258.648 184.874 258.074 197.735 261.02C212.472 264.396 226.342 272.391 238.699 281.665C238.521 281.6 238.342 281.535 238.164 281.47C229.897 276.681 221.147 272.859 212.064 270.778C199.108 267.811 185.47 268.386 171.595 274.756C157.722 281.125 143.633 293.275 129.757 313.418C97.4363 360.335 96.7473 403.294 96.2163 436.347C96.1673 439.416 96.1193 442.399 96.0473 445.293C95.6253 462.342 94.3733 476.181 87.2433 485.981C80.1283 495.761 67.0943 501.595 42.8968 502.43L42.8964 503.019C67.1423 502.182 80.3993 496.334 87.6763 486.333C94.9383 476.351 96.1783 462.31 96.6003 445.289C96.6713 442.423 96.7193 439.47 96.7683 436.435V436.409V436.399V436.392L96.7693 436.372V436.366V436.346V436.341C97.3013 403.295 97.9893 360.512 130.199 313.757C144.031 293.678 158.043 281.611 171.799 275.296C185.552 268.983 199.07 268.409 211.931 271.355C219.957 273.193 227.726 276.402 235.133 280.441C233.08 279.787 231.008 279.216 228.918 278.738C215.962 275.77 202.324 276.346 188.449 282.716C174.576 289.084 160.487 301.234 146.611 321.377C114.29 368.295 113.601 411.253 113.07 444.306C113.021 447.375 112.973 450.359 112.901 453.252C112.479 470.301 111.227 484.14 104.097 493.94C96.9823 503.72 83.9483 509.554 59.7509 510.389L59.7505 510.978C83.9963 510.141 97.2533 504.294 104.53 494.292C111.792 484.311 113.032 470.269 113.454 453.248C113.525 450.382 113.573 447.429 113.622 444.394V444.369V444.358V444.351L113.623 444.331V444.325V444.306V444.301C114.155 411.254 114.843 368.472 147.053 321.716C160.885 301.637 174.898 289.57 188.653 283.256C202.406 276.942 215.924 276.368 228.785 279.314C231.873 280.022 234.922 280.932 237.928 282.014C238.488 282.338 239.046 282.668 239.601 283.001C229.215 281.948 218.467 283.377 207.573 288.378C193.7 294.747 179.611 306.897 165.735 327.04C133.414 373.958 132.725 416.916 132.194 449.969V449.983C132.145 453.047 132.097 456.026 132.025 458.915C131.603 475.964 130.351 489.803 123.221 499.603C116.106 509.383 103.072 515.217 78.8753 516.052L78.8743 516.641C103.12 515.804 116.377 509.957 123.654 499.955C130.916 489.974 132.156 475.932 132.578 458.911C132.65 456.016 132.698 453.031 132.747 449.963C133.279 416.917 133.967 374.135 166.177 327.379C180.009 307.3 194.022 295.233 207.777 288.919C219.019 283.758 230.103 282.432 240.8 283.729C241.801 284.344 242.795 284.972 243.78 285.613C244.328 286.052 244.873 286.493 245.414 286.936C239.834 287.755 234.184 289.393 228.494 292.005C214.621 298.373 200.533 310.523 186.656 330.667C154.335 377.584 153.646 420.542 153.116 453.595C153.066 456.664 153.019 459.648 152.947 462.541C152.524 479.59 151.273 493.43 144.143 503.23C137.028 513.009 123.993 518.843 99.7963 519.678V520.267C124.042 519.43 137.299 513.583 144.575 503.581C151.837 493.6 153.078 479.558 153.5 462.537C153.571 459.671 153.618 456.719 153.667 453.683L153.668 453.658V453.647V453.641V453.62V453.614L153.669 453.595V453.59C154.2 420.543 154.889 377.761 187.098 331.005C200.93 310.926 214.943 298.86 228.698 292.545C234.528 289.869 240.315 288.224 246.028 287.441C248.296 289.31 250.502 291.202 252.642 293.091C252.022 293.353 251.402 293.627 250.781 293.912C236.909 300.28 222.82 312.43 208.944 332.573C176.623 379.491 175.933 422.449 175.403 455.502V455.503C175.354 458.572 175.306 461.555 175.234 464.448C174.812 481.497 173.56 495.336 166.43 505.136C159.315 514.916 146.28 520.75 122.083 521.585V522.174C146.329 521.337 159.586 515.49 166.863 505.488C174.125 495.507 175.365 481.465 175.787 464.444C175.858 461.554 175.906 458.576 175.956 455.514V455.497C176.488 422.45 177.176 379.668 209.386 332.912C223.218 312.833 237.23 300.766 250.986 294.452C251.698 294.125 252.41 293.813 253.122 293.516C256.173 296.223 259.088 298.923 261.852 301.544C251.98 308.577 242.064 318.823 232.253 333.064C199.932 379.981 199.242 422.94 198.712 455.992V455.999V456.005V456.011C198.663 459.073 198.615 462.051 198.543 464.939C198.121 481.988 196.869 495.827 189.739 505.627C182.624 515.406 169.589 521.241 145.392 522.076V522.665C169.638 521.828 182.895 515.98 190.172 505.979C197.434 495.997 198.674 481.956 199.096 464.935C199.168 462.041 199.216 459.059 199.265 455.993V455.987C199.797 422.94 200.485 380.158 232.695 333.403C242.515 319.147 252.426 308.93 262.272 301.943C262.711 302.36 263.145 302.775 263.576 303.188L263.953 302.743C263.558 302.365 263.159 301.984 262.757 301.602C263.127 301.343 263.497 301.089 263.867 300.84C268.849 305.113 273.502 309.435 277.772 313.522L278.149 313.078C273.921 309.03 269.31 304.746 264.37 300.502C265.472 299.77 266.573 299.078 267.674 298.425C277.72 305.743 286.815 314.003 294.626 321.482L295.003 321.037C287.252 313.616 278.216 305.403 268.224 298.101C269.958 297.091 271.689 296.176 273.416 295.353C288.831 304.199 302.6 316.469 313.75 327.145L314.127 326.7C303.07 316.114 289.397 303.916 274.065 295.048C274.142 295.013 274.218 294.977 274.295 294.942C276.467 293.945 278.633 293.091 280.791 292.372C301.7 300.708 320.346 317.055 334.671 330.771L335.048 330.326C320.878 316.759 302.413 300.547 281.665 292.088C284.298 291.253 286.919 290.618 289.526 290.165C290.058 290.274 290.588 290.389 291.118 290.51C316.858 296.406 339.953 316.395 356.959 332.678L357.336 332.233C340.333 315.954 317.145 295.865 291.251 289.934L291.136 289.908C299.069 288.753 306.862 289.268 314.427 291.001C340.167 296.897 363.262 316.886 380.268 333.168L380.645 332.724ZM245.623 284.492L245.454 284.46C245.543 284.501 245.632 284.542 245.721 284.583L245.623 284.492ZM248.495 287.156C249.751 288.332 250.977 289.495 252.173 290.641L252.55 290.196C251.482 289.174 250.389 288.136 249.273 287.087C249.341 287.082 249.409 287.077 249.477 287.071C252.079 288.408 254.638 289.851 257.151 291.38C256.227 291.691 255.303 292.027 254.376 292.387C252.08 290.636 249.73 288.926 247.329 287.278C247.718 287.233 248.107 287.192 248.495 287.156ZM247.581 286.302L247.925 286.622C247.481 286.668 247.037 286.719 246.593 286.775C245.769 286.217 244.94 285.666 244.105 285.123C243.629 284.742 243.151 284.362 242.671 283.983C242.801 284.002 242.932 284.022 243.062 284.043C244.443 284.636 245.812 285.263 247.171 285.921C247.308 286.048 247.445 286.175 247.581 286.302ZM247.485 285.418C247.233 285.185 246.981 284.951 246.727 284.717C247.122 284.8 247.515 284.887 247.909 284.977C249.597 285.364 251.273 285.811 252.938 286.314C251.828 286.336 250.716 286.388 249.6 286.472C248.898 286.113 248.193 285.761 247.485 285.418ZM253.24 292.842C251.839 291.602 250.409 290.36 248.951 289.123C250.571 290.271 252.168 291.445 253.74 292.639C253.574 292.706 253.407 292.773 253.24 292.842ZM262.336 301.202C259.61 298.615 256.734 295.947 253.722 293.269L253.841 293.221L253.937 293.183C254.001 293.157 254.066 293.131 254.131 293.105L254.277 293.048C257.429 295.459 260.48 297.948 263.418 300.456C263.057 300.7 262.697 300.949 262.336 301.202ZM263.92 300.117C265.004 299.393 266.088 298.708 267.17 298.059C264.129 295.861 261.002 293.751 257.798 291.777C256.839 292.091 255.878 292.432 254.915 292.8C258.021 295.185 261.027 297.643 263.92 300.117ZM257.883 291.139C255.499 289.676 253.072 288.288 250.607 286.994C252.003 286.912 253.394 286.88 254.78 286.895C257.387 287.751 259.963 288.74 262.503 289.843C260.967 290.209 259.427 290.64 257.883 291.139ZM267.719 297.734C264.738 295.571 261.674 293.492 258.534 291.541C260.159 291.032 261.78 290.598 263.395 290.235C266.593 291.661 269.733 293.265 272.808 295.007C271.115 295.827 269.418 296.735 267.719 297.734ZM273.834 294.521L273.944 294.469L274.091 294.402C276.05 293.502 278.006 292.718 279.955 292.043C276.927 290.871 273.852 289.868 270.737 289.067C268.624 289.268 266.5 289.585 264.367 290.026C267.453 291.433 270.485 293.002 273.455 294.698C273.581 294.638 273.707 294.579 273.834 294.521ZM263.467 289.621C265.342 289.207 267.21 288.888 269.069 288.659L268.967 288.635L268.83 288.603C264.868 287.696 260.843 287.122 256.768 286.948C259.027 287.746 261.26 288.642 263.467 289.621ZM280.824 291.749C278.085 290.664 275.306 289.715 272.493 288.926C277.728 288.584 282.893 288.94 287.963 289.862C285.594 290.336 283.214 290.961 280.824 291.749ZM177.646 233.527C203.54 239.458 226.728 259.547 243.731 275.826L243.354 276.271C226.348 259.988 203.253 239.999 177.513 234.103C164.652 231.157 151.134 231.731 137.381 238.045C123.626 244.359 109.613 256.426 95.7813 276.505C63.5715 323.261 62.8832 366.043 62.3516 399.089C62.3022 402.157 62.2542 405.142 62.1824 408.037C61.7607 425.058 60.5202 439.1 53.2584 449.081C45.9816 459.083 32.7247 464.93 8.47859 465.767L8.47899 465.178C32.676 464.343 45.7107 458.509 52.8257 448.729C59.9557 438.929 61.2073 425.09 61.6298 408.041C61.7014 405.15 61.7493 402.169 61.7984 399.103L61.7986 399.095C62.329 366.042 63.0183 323.084 95.3393 276.166C109.215 256.023 123.304 243.873 137.177 237.504C151.052 231.135 164.69 230.559 177.646 233.527ZM237.016 260.115C220.013 243.836 196.826 223.747 170.931 217.816C157.975 214.848 144.337 215.424 130.462 221.793C116.589 228.162 102.501 240.312 88.6243 260.455C56.3037 307.373 55.6144 350.331 55.084 383.384C55.0347 386.453 54.9868 389.437 54.9152 392.33C54.4927 409.379 53.2411 423.218 46.1111 433.018C38.9961 442.798 25.9614 448.632 1.76429 449.467L1.76389 450.056C26.0102 449.219 39.267 443.372 46.5437 433.37C53.8056 423.389 55.046 409.347 55.4678 392.326C55.5393 389.442 55.5872 386.47 55.6364 383.414L55.6369 383.384L55.637 383.379C56.1686 350.332 56.8569 307.55 89.0663 260.794C102.898 240.715 116.911 228.648 130.666 222.334C144.419 216.02 157.937 215.446 170.798 218.392C196.539 224.288 219.634 244.277 236.639 260.56L237.016 260.115ZM165.731 201.209C191.625 207.14 214.813 227.229 231.816 243.508L231.439 243.953C214.433 227.671 191.338 207.681 165.597 201.785C152.736 198.84 139.219 199.413 125.466 205.727C111.71 212.041 97.6983 224.108 83.8663 244.187C51.6561 290.943 50.9678 333.725 50.4362 366.772C50.3868 369.84 50.3388 372.824 50.2671 375.719C49.8453 392.74 48.6048 406.782 41.343 416.763C34.0662 426.765 20.8094 432.612 -3.43681 433.449L-3.43651 432.86C20.7606 432.025 33.7953 426.191 40.9103 416.411C48.0403 406.611 49.2919 392.772 49.7144 375.723C49.7861 372.83 49.834 369.846 49.8832 366.777C50.4136 333.724 51.1029 290.766 83.4243 243.848C97.3003 223.705 111.389 211.555 125.261 205.187C139.137 198.817 152.774 198.241 165.731 201.209ZM227.557 226.375C210.554 210.096 187.366 190.007 161.472 184.076C148.516 181.108 134.878 181.684 121.003 188.054C107.13 194.422 93.0423 206.572 79.1653 226.715C46.8444 273.633 46.1551 316.591 45.6247 349.644C45.5755 352.713 45.5276 355.697 45.4559 358.59C45.0334 375.639 43.7818 389.478 36.6518 399.278C29.5368 409.058 16.5021 414.892 -7.69501 415.727L-7.69541 416.316C16.5508 415.479 29.8077 409.632 37.0844 399.63C44.3463 389.649 45.5868 375.607 46.0085 358.586C46.0803 355.691 46.1283 352.707 46.1777 349.639C46.7093 316.592 47.3976 273.81 79.6073 227.054C93.4393 206.975 107.452 194.908 121.207 188.594C134.96 182.28 148.478 181.706 161.339 184.652C187.079 190.548 210.174 210.537 227.18 226.82L227.557 226.375ZM157.674 166.693C183.568 172.624 206.756 192.713 223.759 208.993L223.382 209.437C206.377 193.155 183.282 173.165 157.541 167.269C144.68 164.323 131.162 164.897 117.409 171.211C103.654 177.525 89.6413 189.592 75.8093 209.671C43.5999 256.427 42.9116 299.209 42.3799 332.256C42.3306 335.324 42.2825 338.308 42.2108 341.204C41.789 358.224 40.5485 372.266 33.2867 382.247C26.0099 392.249 12.7531 398.097 -11.4931 398.933L-11.4927 398.344C12.7043 397.509 25.739 391.675 32.854 381.896C39.984 372.096 41.2356 358.257 41.6581 341.207C41.7298 338.314 41.7777 335.33 41.8269 332.261C42.3573 299.209 43.0467 256.25 75.3673 209.333C89.2443 189.19 103.332 177.039 117.205 170.67C131.08 164.301 144.718 163.725 157.674 166.693ZM220.039 191.57C203.036 175.29 179.848 155.201 153.954 149.27C140.998 146.303 127.36 146.878 113.485 153.248C99.6123 159.617 85.5243 171.767 71.6473 191.91C39.3264 238.828 38.6371 281.786 38.1067 314.839C38.0575 317.908 38.0096 320.892 37.9379 323.785C37.5154 340.834 36.2638 354.673 29.1338 364.473C22.0188 374.253 8.98409 380.087 -15.213 380.922L-15.2133 381.511C9.03289 380.674 22.2897 374.827 29.5665 364.825C36.8283 354.844 38.0688 340.802 38.4906 323.781C38.5623 320.886 38.6103 317.902 38.6597 314.834C39.1913 281.787 39.8796 239.005 72.0893 192.249C85.9213 172.17 99.9343 160.103 113.689 153.788C127.442 147.475 140.96 146.901 153.821 149.847C179.562 155.743 202.656 175.732 219.662 192.015L220.039 191.57ZM150.023 131.958C175.918 137.889 199.105 157.978 216.108 174.258L215.732 174.702C198.726 158.42 175.631 138.43 149.89 132.534C137.029 129.589 123.511 130.162 109.759 136.476C96.0033 142.791 81.9913 154.857 68.1583 174.936C35.949 221.692 35.2608 264.474 34.7291 297.521L34.729 297.526L34.7285 297.557C34.6793 300.612 34.6314 303.584 34.56 306.469C34.1382 323.489 32.8977 337.531 25.6359 347.512C18.3591 357.514 5.10229 363.362 -19.1439 364.199L-19.1435 363.609C5.05349 362.774 18.0882 356.94 25.2032 347.161C32.3332 337.361 33.5848 323.522 34.0073 306.473C34.0789 303.582 34.1267 300.602 34.1759 297.536L34.176 297.532L34.1761 297.526C34.7065 264.474 35.3958 221.515 67.7173 174.598C81.5933 154.455 95.6823 142.304 109.554 135.936C123.43 129.566 137.067 128.99 150.023 131.958ZM211.756 157.176C194.753 140.896 171.565 120.807 145.671 114.876C132.715 111.908 119.077 112.484 105.202 118.854C91.3293 125.222 77.2413 137.373 63.3646 157.516C31.0436 204.433 30.3542 247.392 29.8238 280.444C29.7746 283.514 29.7267 286.497 29.655 289.391C29.2325 306.44 27.9809 320.279 20.851 330.079C13.7359 339.858 0.701187 345.693 -23.4958 346.528L-23.4962 347.117C0.749992 346.28 14.0068 340.432 21.2836 330.431C28.5454 320.449 29.7859 306.408 30.2077 289.387C30.2795 286.491 30.3275 283.507 30.3768 280.439C30.9085 247.393 31.5968 204.61 63.8064 157.854C77.6383 137.775 91.6513 125.709 105.406 119.394C119.159 113.081 132.677 112.507 145.538 115.453C171.279 121.348 194.373 141.338 211.379 157.62L211.756 157.176ZM140.752 98.1115C166.646 104.043 189.834 124.132 206.837 140.411L206.46 140.855C189.454 124.573 166.359 104.584 140.618 98.688C127.757 95.7421 114.24 96.3159 100.487 102.629C86.7313 108.944 72.7193 121.011 58.8869 141.09C26.6772 187.846 25.9889 230.628 25.4572 263.675C25.4079 266.743 25.3599 269.727 25.2881 272.622C24.8663 289.643 23.6258 303.685 16.364 313.666C9.08719 323.668 -4.16961 329.515 -28.4158 330.352L-28.4154 329.763C-4.21831 328.928 8.81639 323.094 15.9314 313.315C23.0614 303.514 24.3129 289.675 24.7354 272.626C24.8072 269.733 24.855 266.749 24.9043 263.68C25.4347 230.627 26.124 187.669 58.4451 140.751C72.3213 120.608 86.4103 108.458 100.282 102.089C114.158 95.7195 127.795 95.1439 140.752 98.1115ZM201.252 124.025C184.249 107.745 161.062 87.6561 135.167 81.7251C122.211 78.7575 108.574 79.3331 94.6983 85.7028C80.8253 92.0713 66.7373 104.222 52.8609 124.365C20.5398 171.282 19.8505 214.241 19.3201 247.293C19.2708 250.363 19.2229 253.346 19.1513 256.24C18.7287 273.289 17.4772 287.128 10.3472 296.928C3.23219 306.708 -9.80251 312.542 -33.9996 313.377L-34 313.966C-9.75381 313.129 3.50299 307.281 10.7798 297.28C18.0416 287.298 19.2821 273.257 19.7039 256.236C19.7757 253.34 19.8237 250.356 19.873 247.288C20.4047 214.242 21.093 171.459 53.3027 124.703C67.1353 104.624 81.1473 92.5577 94.9033 86.243C108.655 79.9295 122.173 79.3557 135.034 82.3016C160.775 88.1974 183.87 108.187 200.876 124.469L201.252 124.025Z" fill="white" stroke="white" stroke-width="2" mask="url(#path-1-inside-1_12_79)"/>
</g>
<defs>
<clipPath id="clip0_12_79">
<rect width="157" height="301" fill="white"/>
</clipPath>
</defs>
</svg>
