<svg width="247" height="337" viewBox="0 0 247 337" fill="none" xmlns="http://www.w3.org/2000/svg">
<mask id="path-1-inside-1_12_89" fill="white">
<path fill-rule="evenodd" clip-rule="evenodd" d="M-6.05907 336.645C10.2209 319.642 30.3099 296.454 36.2409 270.56C38.0969 262.454 38.5669 254.082 37.0989 245.552C38.3469 239.431 38.7899 233.164 38.1939 226.796C38.3499 226.187 38.4979 225.576 38.6379 224.963C39.6949 220.35 40.3019 215.65 40.3589 210.883C41.0979 208.626 41.7369 206.344 42.2639 204.042C42.4289 203.324 42.5819 202.605 42.7239 201.883C57.5549 185.701 73.5799 165.119 78.7679 142.465C81.7359 129.509 81.1599 115.871 74.7909 101.996C68.4219 88.1233 56.2719 74.0353 36.1289 60.1583C-10.7891 27.8373 -53.747 27.1483 -86.8 26.6173H-86.8021H-86.8291C-89.8881 26.5683 -92.8621 26.5203 -95.7461 26.4493C-112.795 26.0263 -126.634 24.7743 -136.434 17.6448C-146.214 10.5298 -152.048 -2.50491 -152.883 -26.7019L-153.472 -26.7023C-152.635 -2.45612 -146.788 10.8007 -136.786 18.0774C-126.805 25.3393 -112.763 26.5793 -95.7421 27.0013C-92.8461 27.0733 -89.8621 27.1213 -86.7941 27.1703C-53.7481 27.7023 -10.9651 28.3903 35.7899 60.6003C55.8689 74.4323 67.9359 88.4453 74.2499 102.2C80.5639 115.953 81.1379 129.471 78.1919 142.332C73.1099 164.52 57.5549 184.743 42.9299 200.794C43.0249 200.272 43.1129 199.748 43.1959 199.223C43.5629 198.368 43.9169 197.508 44.2579 196.645C54.0779 183.847 62.6769 169.341 66.2209 153.868C69.1889 140.912 68.6129 127.274 62.2429 113.399C55.8749 99.5263 43.7249 85.4383 23.5819 71.5613C-23.3361 39.2403 -66.294 38.5513 -99.347 38.0213L-99.3531 38.0203H-99.3621C-102.426 37.9713 -105.404 37.9233 -108.293 37.8523C-125.342 37.4293 -139.181 36.1783 -148.981 29.0483C-158.761 21.9333 -164.595 8.89828 -165.43 -15.2988L-166.019 -15.2992C-165.182 8.94699 -159.335 22.2043 -149.333 29.4803C-139.352 36.7423 -125.31 37.9833 -108.289 38.4043C-105.423 38.4753 -102.47 38.5233 -99.4351 38.5723H-99.4101L-99.399 38.5733H-99.3921H-99.3721H-99.3661H-99.347L-99.3421 38.5743C-66.2951 39.1053 -23.5131 39.7933 23.2429 72.0033C43.3219 85.8353 55.3889 99.8483 61.7029 113.603C68.0169 127.356 68.5909 140.874 65.6449 153.735C62.2689 168.472 54.2739 182.342 44.9999 194.699C45.0649 194.521 45.1299 194.342 45.1949 194.164C49.9839 185.897 53.8059 177.147 55.8869 168.064C58.8539 155.108 58.2789 141.47 51.9089 127.595C45.5399 113.722 33.3899 99.6333 13.2469 85.7573C-33.6701 53.4363 -76.6291 52.7473 -109.682 52.2163C-112.751 52.1673 -115.734 52.1193 -118.628 52.0473C-135.677 51.6253 -149.516 50.3733 -159.316 43.2433C-169.096 36.1283 -174.93 23.0943 -175.765 -1.10321L-176.354 -1.10361C-175.517 23.1423 -169.669 36.3993 -159.668 43.6763C-149.686 50.9383 -135.645 52.1783 -118.624 52.6003C-115.758 52.6713 -112.805 52.7193 -109.77 52.7683H-109.744H-109.734H-109.727L-109.707 52.7693H-109.701H-109.681H-109.676C-76.6301 53.3013 -33.8471 53.9893 12.9079 86.1993C32.9869 100.031 45.0539 114.043 51.3689 127.799C57.6819 141.552 58.2559 155.07 55.3099 167.931C53.4719 175.957 50.2629 183.726 46.2239 191.133C46.8779 189.08 47.4489 187.008 47.9269 184.918C50.8949 171.962 50.3189 158.324 43.9489 144.449C37.5809 130.576 25.4309 116.487 5.28793 102.611C-41.6301 70.2903 -84.588 69.6013 -117.641 69.0703C-120.71 69.0213 -123.694 68.9733 -126.587 68.9013C-143.636 68.4793 -157.475 67.2273 -167.275 60.0973C-177.055 52.9823 -182.889 39.9483 -183.724 15.7509L-184.313 15.7505C-183.476 39.9963 -177.629 53.2533 -167.627 60.5303C-157.646 67.7923 -143.604 69.0323 -126.583 69.4543C-123.717 69.5253 -120.764 69.5733 -117.729 69.6223H-117.704H-117.693H-117.686L-117.666 69.6233H-117.66H-117.641H-117.636C-84.5891 70.1553 -41.8071 70.8433 4.94893 103.053C25.0279 116.885 37.0949 130.898 43.4089 144.653C49.7229 158.406 50.2969 171.924 47.3509 184.785C46.6429 187.873 45.7329 190.922 44.6509 193.928C44.3269 194.488 43.9969 195.046 43.6639 195.601C44.7169 185.215 43.2879 174.467 38.2869 163.573C31.9179 149.7 19.7679 135.611 -0.375076 121.735C-47.2931 89.4143 -90.251 88.7253 -123.304 88.1943H-123.318C-126.382 88.1453 -129.361 88.0973 -132.25 88.0253C-149.299 87.6033 -163.138 86.3513 -172.938 79.2213C-182.718 72.1063 -188.552 59.0723 -189.387 34.8753L-189.976 34.8743C-189.139 59.1203 -183.292 72.3773 -173.29 79.6543C-163.309 86.9163 -149.267 88.1563 -132.246 88.5783C-129.351 88.6503 -126.366 88.6983 -123.298 88.7473C-90.2521 89.2793 -47.4701 89.9673 -0.714081 122.177C19.3649 136.009 31.4319 150.022 37.7459 163.777C42.9069 175.019 44.2329 186.103 42.9359 196.8C42.3209 197.801 41.6929 198.795 41.0519 199.78C40.6129 200.328 40.1719 200.873 39.7289 201.414C38.9099 195.834 37.2719 190.184 34.6599 184.494C28.2919 170.621 16.1419 156.533 -4.00208 142.656C-50.9191 110.335 -93.877 109.646 -126.93 109.116C-129.999 109.066 -132.983 109.019 -135.876 108.947C-152.925 108.524 -166.765 107.273 -176.565 100.143C-186.344 93.0283 -192.178 79.9933 -193.013 55.7963H-193.602C-192.765 80.0423 -186.918 93.2993 -176.916 100.575C-166.935 107.837 -152.893 109.078 -135.872 109.5C-133.006 109.571 -130.054 109.618 -127.018 109.667L-126.993 109.668H-126.982H-126.976H-126.955H-126.949L-126.93 109.669H-126.925C-93.8781 110.2 -51.0961 110.889 -4.34007 143.098C15.7389 156.93 27.8049 170.943 34.1199 184.698C36.7959 190.528 38.4409 196.315 39.2239 202.028C37.3549 204.296 35.4629 206.502 33.5739 208.642C33.3119 208.022 33.0379 207.402 32.7529 206.781C26.3849 192.909 14.2349 178.82 -5.90808 164.944C-52.8261 132.623 -95.7841 131.933 -128.837 131.403H-128.838C-131.907 131.354 -134.89 131.306 -137.783 131.234C-154.832 130.812 -168.671 129.56 -178.471 122.43C-188.251 115.315 -194.085 102.28 -194.92 78.0833H-195.509C-194.672 102.329 -188.825 115.586 -178.823 122.863C-168.842 130.125 -154.8 131.365 -137.779 131.787C-134.889 131.858 -131.911 131.906 -128.849 131.956H-128.832C-95.7851 132.488 -53.0031 133.176 -6.24707 165.386C13.8319 179.218 25.8989 193.23 32.2129 206.986C32.5399 207.698 32.8519 208.41 33.1489 209.122C30.4419 212.173 27.7419 215.088 25.1209 217.852C18.0879 207.98 7.84192 198.064 -6.39908 188.253C-53.3161 155.932 -96.2751 155.242 -129.327 154.712H-129.334H-129.34H-129.346C-132.408 154.663 -135.386 154.615 -138.274 154.543C-155.323 154.121 -169.162 152.869 -178.962 145.739C-188.741 138.624 -194.576 125.589 -195.411 101.392H-196C-195.163 125.638 -189.315 138.895 -179.314 146.172C-169.332 153.434 -155.291 154.674 -138.27 155.096C-135.376 155.168 -132.394 155.216 -129.328 155.265H-129.322C-96.2751 155.797 -53.4931 156.485 -6.73807 188.695C7.51793 198.515 17.7349 208.426 24.7219 218.272C24.3049 218.711 23.8899 219.145 23.4769 219.576L23.9219 219.953C24.2999 219.558 24.6809 219.159 25.0629 218.757C25.3219 219.127 25.5759 219.497 25.8249 219.867C21.5519 224.849 17.2299 229.502 13.1429 233.772L13.5869 234.149C17.6349 229.921 21.9189 225.31 26.1629 220.37C26.8949 221.472 27.5869 222.573 28.2399 223.674C20.9219 233.72 12.6619 242.815 5.18292 250.626L5.62793 251.003C13.0489 243.252 21.2619 234.216 28.5639 224.224C29.5739 225.958 30.4889 227.689 31.3119 229.416C22.4659 244.831 10.1959 258.6 -0.480072 269.75L-0.03508 270.127C10.5509 259.07 22.7489 245.397 31.6169 230.065C31.6519 230.142 31.6879 230.218 31.7229 230.295C32.7199 232.467 33.5739 234.633 34.2929 236.791C25.9569 257.7 9.60992 276.346 -4.10608 290.671L-3.66107 291.048C9.90593 276.878 26.1179 258.413 34.5769 237.665C35.4119 240.298 36.0469 242.919 36.4999 245.526C36.3909 246.058 36.2759 246.588 36.1549 247.118C30.2589 272.858 10.2699 295.953 -6.01308 312.959L-5.56807 313.336C10.7109 296.333 30.7999 273.145 36.7309 247.251L36.7569 247.136C37.9119 255.069 37.3969 262.862 35.6639 270.427C29.7679 296.167 9.77893 319.262 -6.50307 336.268L-6.05907 336.645ZM42.1729 201.623L42.2049 201.454C42.1639 201.543 42.1229 201.632 42.0819 201.721L42.1729 201.623ZM39.5089 204.495C38.3329 205.751 37.1699 206.977 36.0239 208.173L36.4689 208.55C37.4909 207.482 38.5289 206.389 39.5779 205.273C39.5829 205.341 39.5879 205.409 39.5939 205.477C38.2569 208.079 36.8139 210.638 35.2849 213.151C34.9739 212.227 34.6379 211.303 34.2779 210.376C36.0289 208.08 37.7389 205.73 39.3869 203.329C39.4319 203.718 39.4729 204.107 39.5089 204.495ZM40.3629 203.581L40.0429 203.925C39.9969 203.481 39.9459 203.037 39.8899 202.593C40.4479 201.769 40.9989 200.94 41.5419 200.105C41.9229 199.629 42.3029 199.151 42.6819 198.671C42.6629 198.801 42.6429 198.932 42.6219 199.062C42.0289 200.443 41.4019 201.812 40.7439 203.171C40.6169 203.308 40.4899 203.445 40.3629 203.581ZM41.2469 203.485C41.4799 203.233 41.7139 202.981 41.9479 202.727C41.8649 203.122 41.7779 203.515 41.6879 203.909C41.3009 205.597 40.8539 207.273 40.3509 208.938C40.3289 207.828 40.2769 206.716 40.1929 205.6C40.5519 204.898 40.9039 204.193 41.2469 203.485ZM33.8229 209.24C35.0629 207.839 36.3049 206.409 37.5419 204.951C36.3939 206.571 35.2199 208.168 34.0259 209.74C33.9589 209.574 33.8919 209.407 33.8229 209.24ZM25.4629 218.336C28.0499 215.61 30.7179 212.734 33.3959 209.722L33.4439 209.841L33.4819 209.937C33.5079 210.001 33.5339 210.066 33.5599 210.131L33.6169 210.277C31.2059 213.429 28.7169 216.48 26.2089 219.418C25.9649 219.057 25.7159 218.697 25.4629 218.336ZM26.5479 219.92C27.2719 221.004 27.9569 222.088 28.6059 223.17C30.8039 220.129 32.9139 217.002 34.8879 213.798C34.5739 212.839 34.2329 211.878 33.8649 210.915C31.4799 214.021 29.0219 217.027 26.5479 219.92ZM35.5259 213.883C36.9889 211.499 38.3769 209.072 39.6709 206.607C39.7529 208.003 39.7849 209.394 39.7699 210.78C38.9139 213.387 37.9249 215.963 36.8219 218.503C36.4559 216.967 36.0249 215.427 35.5259 213.883ZM28.9309 223.719C31.0939 220.738 33.1729 217.674 35.1239 214.534C35.6329 216.159 36.0669 217.78 36.4299 219.395C35.0039 222.593 33.3999 225.733 31.6579 228.808C30.8379 227.115 29.9299 225.418 28.9309 223.719ZM32.1439 229.834L32.1959 229.944L32.2629 230.091C33.1629 232.05 33.9469 234.006 34.6219 235.955C35.7939 232.927 36.7969 229.852 37.5979 226.737C37.3969 224.624 37.0799 222.5 36.6389 220.367C35.2319 223.453 33.6629 226.485 31.9669 229.455C32.0269 229.581 32.0859 229.707 32.1439 229.834ZM37.0439 219.467C37.4579 221.342 37.7769 223.21 38.0059 225.069L38.0299 224.967L38.0619 224.83C38.9689 220.868 39.5429 216.843 39.7169 212.768C38.9189 215.027 38.0229 217.26 37.0439 219.467ZM34.9159 236.824C36.0009 234.085 36.9499 231.306 37.7389 228.493C38.0809 233.728 37.7249 238.893 36.8029 243.963C36.3289 241.594 35.7039 239.214 34.9159 236.824ZM93.1379 133.646C87.2069 159.54 67.1179 182.728 50.8389 199.731L50.3939 199.354C66.6769 182.348 86.6659 159.253 92.5619 133.513C95.5079 120.652 94.9339 107.134 88.6199 93.3813C82.3059 79.6263 70.2389 65.6133 50.1599 51.7813C3.40393 19.5715 -39.3781 18.8832 -72.4241 18.3516C-75.4921 18.3022 -78.4771 18.2542 -81.3721 18.1824C-98.3931 17.7607 -112.435 16.5202 -122.416 9.25839C-132.418 1.98159 -138.265 -11.2753 -139.102 -35.5214L-138.513 -35.521C-137.678 -11.324 -131.844 1.71069 -122.064 8.82569C-112.264 15.9557 -98.4251 17.2073 -81.3761 17.6298C-78.4851 17.7014 -75.5041 17.7493 -72.438 17.7984L-72.4301 17.7986C-39.377 18.329 3.58093 19.0183 50.4989 51.3393C70.6419 65.2153 82.7919 79.3043 89.1609 93.1773C95.5299 107.052 96.1059 120.69 93.1379 133.646ZM66.5499 193.016C82.8289 176.013 102.918 152.826 108.849 126.931C111.817 113.975 111.241 100.337 104.872 86.4623C98.5029 72.5893 86.3529 58.5013 66.2099 44.6243C19.2919 12.3037 -23.666 11.6144 -56.7191 11.084C-59.7881 11.0347 -62.7721 10.9868 -65.6651 10.9152C-82.7141 10.4927 -96.5531 9.24109 -106.353 2.11109C-116.133 -5.00391 -121.967 -18.0386 -122.802 -42.2357L-123.391 -42.2361C-122.554 -17.9898 -116.707 -4.73301 -106.705 2.54369C-96.7241 9.8056 -82.6821 11.046 -65.6611 11.4678C-62.7771 11.5393 -59.8051 11.5872 -56.7491 11.6364L-56.7191 11.6369L-56.7141 11.637C-23.6671 12.1686 19.1149 12.8569 65.8709 45.0663C85.9499 58.8983 98.0169 72.9113 104.331 86.6663C110.645 100.419 111.219 113.937 108.273 126.798C102.377 152.539 82.3879 175.634 66.1049 192.639L66.5499 193.016ZM125.456 121.731C119.525 147.625 99.4359 170.813 83.1569 187.816L82.7119 187.439C98.9939 170.433 118.984 147.338 124.88 121.597C127.825 108.736 127.252 95.2193 120.938 81.4663C114.624 67.7103 102.557 53.6983 82.4779 39.8663C35.7219 7.6561 -7.06006 6.96779 -40.1071 6.43619C-43.175 6.38679 -46.1591 6.33879 -49.054 6.26709C-66.075 5.84529 -80.1171 4.6048 -90.0981 -2.65701C-100.1 -9.93381 -105.947 -23.1906 -106.784 -47.4368L-106.195 -47.4365C-105.36 -23.2394 -99.5261 -10.2047 -89.7461 -3.08971C-79.9461 4.04029 -66.1071 5.29189 -49.058 5.71439C-46.165 5.78609 -43.1811 5.83399 -40.1121 5.88319C-7.05905 6.4136 35.8989 7.10289 82.8169 39.4243C102.96 53.3003 115.11 67.3893 121.478 81.2613C127.848 95.1373 128.424 108.774 125.456 121.731ZM100.29 183.557C116.569 166.554 136.658 143.366 142.589 117.472C145.557 104.516 144.981 90.8783 138.611 77.0033C132.243 63.1303 120.093 49.0423 99.9499 35.1653C53.0319 2.84439 10.0739 2.1551 -22.9791 1.62469C-26.0481 1.57549 -29.032 1.5276 -31.925 1.45589C-48.9741 1.03339 -62.8131 -0.218208 -72.6131 -7.34821C-82.3931 -14.4632 -88.2271 -27.4979 -89.0621 -51.695L-89.6511 -51.6954C-88.8141 -27.4492 -82.9671 -14.1923 -72.9651 -6.91561C-62.9841 0.346291 -48.942 1.58679 -31.9211 2.00849C-29.0261 2.08029 -26.0421 2.12829 -22.9741 2.17769C10.0729 2.70929 52.8549 3.39759 99.6109 35.6073C119.69 49.4393 131.757 63.4523 138.071 77.2073C144.385 90.9603 144.959 104.478 142.013 117.339C136.117 143.079 116.128 166.174 99.8449 183.18L100.29 183.557ZM159.972 113.674C154.041 139.568 133.952 162.756 117.672 179.759L117.228 179.382C133.51 162.377 153.499 139.282 159.395 113.541C162.341 100.68 161.767 87.1623 155.454 73.4093C149.139 59.6543 137.073 45.6413 116.994 31.8093C70.2379 -0.400116 27.4559 -1.08841 -5.59108 -1.62011C-8.65907 -1.66941 -11.6431 -1.71751 -14.5391 -1.78921C-31.5591 -2.21101 -45.6011 -3.45151 -55.5821 -10.7133C-65.5841 -17.9901 -71.4321 -31.2469 -72.2681 -55.4931L-71.679 -55.4927C-70.8441 -31.2957 -65.01 -18.261 -55.231 -11.146C-45.4311 -4.01601 -31.592 -2.76441 -14.5421 -2.34191C-11.649 -2.27021 -8.66507 -2.22231 -5.59607 -2.17311C27.4559 -1.64271 70.4149 -0.953308 117.332 31.3673C137.475 45.2443 149.626 59.3323 155.994 73.2053C162.364 87.0803 162.939 100.718 159.972 113.674ZM135.095 176.039C151.374 159.036 171.463 135.848 177.394 109.954C180.362 96.9983 179.786 83.3603 173.416 69.4853C167.048 55.6123 154.898 41.5243 134.755 27.6473C87.8369 -4.67361 44.8789 -5.36291 11.8259 -5.89331C8.75693 -5.94251 5.77293 -5.99041 2.87993 -6.06211C-14.1691 -6.48461 -28.0081 -7.73621 -37.808 -14.8662C-47.588 -21.9812 -53.4221 -35.0159 -54.257 -59.213L-54.8461 -59.2133C-54.0091 -34.9671 -48.1621 -21.7103 -38.1601 -14.4335C-28.1791 -7.17171 -14.1371 -5.93121 2.88393 -5.50941C5.77893 -5.43771 8.76294 -5.38971 11.8309 -5.34031C44.8779 -4.80871 87.6599 -4.12041 134.416 28.0893C154.495 41.9213 166.562 55.9343 172.876 69.6893C179.19 83.4423 179.763 96.9603 176.818 109.821C170.922 135.562 150.933 158.656 134.65 175.662L135.095 176.039ZM194.707 106.023C188.776 131.918 168.687 155.105 152.407 172.108L151.963 171.732C168.245 154.726 188.234 131.631 194.13 105.89C197.076 93.0293 196.502 79.5113 190.189 65.7593C183.874 52.0033 171.807 37.9913 151.728 24.1583C104.973 -8.05101 62.1909 -8.73921 29.1439 -9.27091L29.1389 -9.27101L29.1079 -9.27151C26.0529 -9.32071 23.0809 -9.36861 20.1959 -9.44001C3.17592 -9.86181 -10.8661 -11.1023 -20.847 -18.3641C-30.8491 -25.6409 -36.6971 -38.8977 -37.5341 -63.1439L-36.9441 -63.1435C-36.1091 -38.9465 -30.2751 -25.9118 -20.4961 -18.7968C-10.6961 -11.6668 3.14293 -10.4152 20.1919 -9.99271C23.0829 -9.9211 26.0629 -9.87331 29.1289 -9.82411L29.1329 -9.82401L29.1389 -9.82391C62.1909 -9.2935 105.15 -8.6042 152.067 23.7173C172.21 37.5933 184.36 51.6823 190.729 65.5543C197.099 79.4303 197.674 93.0673 194.707 106.023ZM169.489 167.756C185.768 150.753 205.857 127.565 211.788 101.671C214.756 88.7153 214.181 75.0773 207.811 61.2023C201.442 47.3293 189.292 33.2413 169.149 19.3646C122.232 -12.9564 79.2729 -13.6458 46.2209 -14.1762C43.1509 -14.2254 40.1679 -14.2733 37.2739 -14.345C20.2249 -14.7675 6.38593 -16.0191 -3.41408 -23.149C-13.1931 -30.2641 -19.0281 -43.2988 -19.8631 -67.4958L-20.4521 -67.4962C-19.6151 -43.25 -13.7671 -29.9932 -3.76607 -22.7164C6.21593 -15.4546 20.2569 -14.2141 37.2779 -13.7923C40.1739 -13.7205 43.1579 -13.6725 46.2259 -13.6232C79.2719 -13.0915 122.055 -12.4032 168.81 19.8064C188.889 33.6383 200.956 47.6513 207.271 61.4063C213.584 75.1593 214.158 88.6773 211.212 101.538C205.316 127.279 185.327 150.373 169.045 167.379L169.489 167.756ZM228.553 96.7523C222.622 122.646 202.533 145.834 186.253 162.837L185.809 162.46C202.091 145.454 222.081 122.359 227.977 96.6183C230.922 83.7573 230.349 70.2403 224.035 56.4873C217.72 42.7313 205.654 28.7193 185.575 14.8869C138.819 -17.3228 96.0369 -18.0111 62.9899 -18.5428C59.9219 -18.5921 56.9379 -18.6401 54.0429 -18.7119C37.0219 -19.1337 22.9799 -20.3742 12.9989 -27.636C2.99693 -34.9128 -2.85007 -48.1696 -3.68707 -72.4158L-3.09807 -72.4154C-2.26306 -48.2183 3.57092 -35.1836 13.3499 -28.0686C23.1509 -20.9386 36.9899 -19.6871 54.0389 -19.2646C56.9319 -19.1928 59.9159 -19.145 62.9849 -19.0957C96.0379 -18.5653 138.996 -17.876 185.913 14.4451C206.056 28.3213 218.207 42.4103 224.575 56.2823C230.945 70.1583 231.521 83.7953 228.553 96.7523ZM202.64 157.252C218.919 140.249 239.008 117.062 244.939 91.1673C247.907 78.2113 247.331 64.5743 240.962 50.6983C234.593 36.8253 222.443 22.7373 202.3 8.86089C155.382 -23.4602 112.424 -24.1495 79.3719 -24.6799C76.3019 -24.7292 73.3189 -24.7771 70.4249 -24.8487C53.3759 -25.2713 39.5369 -26.5228 29.7369 -33.6528C19.9569 -40.7678 14.1229 -53.8025 13.2879 -77.9996L12.6989 -78C13.5359 -53.7538 19.3839 -40.497 29.3849 -33.2202C39.3669 -25.9584 53.4079 -24.7179 70.4289 -24.2961C73.3249 -24.2243 76.3089 -24.1763 79.3769 -24.127C112.423 -23.5953 155.206 -22.907 201.961 9.30269C222.04 23.1353 234.107 37.1473 240.422 50.9033C246.735 64.6553 247.309 78.1733 244.363 91.0343C238.467 116.775 218.478 139.87 202.196 156.876L202.64 157.252Z"/>
</mask>
<path fill-rule="evenodd" clip-rule="evenodd" d="M-6.05907 336.645C10.2209 319.642 30.3099 296.454 36.2409 270.56C38.0969 262.454 38.5669 254.082 37.0989 245.552C38.3469 239.431 38.7899 233.164 38.1939 226.796C38.3499 226.187 38.4979 225.576 38.6379 224.963C39.6949 220.35 40.3019 215.65 40.3589 210.883C41.0979 208.626 41.7369 206.344 42.2639 204.042C42.4289 203.324 42.5819 202.605 42.7239 201.883C57.5549 185.701 73.5799 165.119 78.7679 142.465C81.7359 129.509 81.1599 115.871 74.7909 101.996C68.4219 88.1233 56.2719 74.0353 36.1289 60.1583C-10.7891 27.8373 -53.747 27.1483 -86.8 26.6173H-86.8021H-86.8291C-89.8881 26.5683 -92.8621 26.5203 -95.7461 26.4493C-112.795 26.0263 -126.634 24.7743 -136.434 17.6448C-146.214 10.5298 -152.048 -2.50491 -152.883 -26.7019L-153.472 -26.7023C-152.635 -2.45612 -146.788 10.8007 -136.786 18.0774C-126.805 25.3393 -112.763 26.5793 -95.7421 27.0013C-92.8461 27.0733 -89.8621 27.1213 -86.7941 27.1703C-53.7481 27.7023 -10.9651 28.3903 35.7899 60.6003C55.8689 74.4323 67.9359 88.4453 74.2499 102.2C80.5639 115.953 81.1379 129.471 78.1919 142.332C73.1099 164.52 57.5549 184.743 42.9299 200.794C43.0249 200.272 43.1129 199.748 43.1959 199.223C43.5629 198.368 43.9169 197.508 44.2579 196.645C54.0779 183.847 62.6769 169.341 66.2209 153.868C69.1889 140.912 68.6129 127.274 62.2429 113.399C55.8749 99.5263 43.7249 85.4383 23.5819 71.5613C-23.3361 39.2403 -66.294 38.5513 -99.347 38.0213L-99.3531 38.0203H-99.3621C-102.426 37.9713 -105.404 37.9233 -108.293 37.8523C-125.342 37.4293 -139.181 36.1783 -148.981 29.0483C-158.761 21.9333 -164.595 8.89828 -165.43 -15.2988L-166.019 -15.2992C-165.182 8.94699 -159.335 22.2043 -149.333 29.4803C-139.352 36.7423 -125.31 37.9833 -108.289 38.4043C-105.423 38.4753 -102.47 38.5233 -99.4351 38.5723H-99.4101L-99.399 38.5733H-99.3921H-99.3721H-99.3661H-99.347L-99.3421 38.5743C-66.2951 39.1053 -23.5131 39.7933 23.2429 72.0033C43.3219 85.8353 55.3889 99.8483 61.7029 113.603C68.0169 127.356 68.5909 140.874 65.6449 153.735C62.2689 168.472 54.2739 182.342 44.9999 194.699C45.0649 194.521 45.1299 194.342 45.1949 194.164C49.9839 185.897 53.8059 177.147 55.8869 168.064C58.8539 155.108 58.2789 141.47 51.9089 127.595C45.5399 113.722 33.3899 99.6333 13.2469 85.7573C-33.6701 53.4363 -76.6291 52.7473 -109.682 52.2163C-112.751 52.1673 -115.734 52.1193 -118.628 52.0473C-135.677 51.6253 -149.516 50.3733 -159.316 43.2433C-169.096 36.1283 -174.93 23.0943 -175.765 -1.10321L-176.354 -1.10361C-175.517 23.1423 -169.669 36.3993 -159.668 43.6763C-149.686 50.9383 -135.645 52.1783 -118.624 52.6003C-115.758 52.6713 -112.805 52.7193 -109.77 52.7683H-109.744H-109.734H-109.727L-109.707 52.7693H-109.701H-109.681H-109.676C-76.6301 53.3013 -33.8471 53.9893 12.9079 86.1993C32.9869 100.031 45.0539 114.043 51.3689 127.799C57.6819 141.552 58.2559 155.07 55.3099 167.931C53.4719 175.957 50.2629 183.726 46.2239 191.133C46.8779 189.08 47.4489 187.008 47.9269 184.918C50.8949 171.962 50.3189 158.324 43.9489 144.449C37.5809 130.576 25.4309 116.487 5.28793 102.611C-41.6301 70.2903 -84.588 69.6013 -117.641 69.0703C-120.71 69.0213 -123.694 68.9733 -126.587 68.9013C-143.636 68.4793 -157.475 67.2273 -167.275 60.0973C-177.055 52.9823 -182.889 39.9483 -183.724 15.7509L-184.313 15.7505C-183.476 39.9963 -177.629 53.2533 -167.627 60.5303C-157.646 67.7923 -143.604 69.0323 -126.583 69.4543C-123.717 69.5253 -120.764 69.5733 -117.729 69.6223H-117.704H-117.693H-117.686L-117.666 69.6233H-117.66H-117.641H-117.636C-84.5891 70.1553 -41.8071 70.8433 4.94893 103.053C25.0279 116.885 37.0949 130.898 43.4089 144.653C49.7229 158.406 50.2969 171.924 47.3509 184.785C46.6429 187.873 45.7329 190.922 44.6509 193.928C44.3269 194.488 43.9969 195.046 43.6639 195.601C44.7169 185.215 43.2879 174.467 38.2869 163.573C31.9179 149.7 19.7679 135.611 -0.375076 121.735C-47.2931 89.4143 -90.251 88.7253 -123.304 88.1943H-123.318C-126.382 88.1453 -129.361 88.0973 -132.25 88.0253C-149.299 87.6033 -163.138 86.3513 -172.938 79.2213C-182.718 72.1063 -188.552 59.0723 -189.387 34.8753L-189.976 34.8743C-189.139 59.1203 -183.292 72.3773 -173.29 79.6543C-163.309 86.9163 -149.267 88.1563 -132.246 88.5783C-129.351 88.6503 -126.366 88.6983 -123.298 88.7473C-90.2521 89.2793 -47.4701 89.9673 -0.714081 122.177C19.3649 136.009 31.4319 150.022 37.7459 163.777C42.9069 175.019 44.2329 186.103 42.9359 196.8C42.3209 197.801 41.6929 198.795 41.0519 199.78C40.6129 200.328 40.1719 200.873 39.7289 201.414C38.9099 195.834 37.2719 190.184 34.6599 184.494C28.2919 170.621 16.1419 156.533 -4.00208 142.656C-50.9191 110.335 -93.877 109.646 -126.93 109.116C-129.999 109.066 -132.983 109.019 -135.876 108.947C-152.925 108.524 -166.765 107.273 -176.565 100.143C-186.344 93.0283 -192.178 79.9933 -193.013 55.7963H-193.602C-192.765 80.0423 -186.918 93.2993 -176.916 100.575C-166.935 107.837 -152.893 109.078 -135.872 109.5C-133.006 109.571 -130.054 109.618 -127.018 109.667L-126.993 109.668H-126.982H-126.976H-126.955H-126.949L-126.93 109.669H-126.925C-93.8781 110.2 -51.0961 110.889 -4.34007 143.098C15.7389 156.93 27.8049 170.943 34.1199 184.698C36.7959 190.528 38.4409 196.315 39.2239 202.028C37.3549 204.296 35.4629 206.502 33.5739 208.642C33.3119 208.022 33.0379 207.402 32.7529 206.781C26.3849 192.909 14.2349 178.82 -5.90808 164.944C-52.8261 132.623 -95.7841 131.933 -128.837 131.403H-128.838C-131.907 131.354 -134.89 131.306 -137.783 131.234C-154.832 130.812 -168.671 129.56 -178.471 122.43C-188.251 115.315 -194.085 102.28 -194.92 78.0833H-195.509C-194.672 102.329 -188.825 115.586 -178.823 122.863C-168.842 130.125 -154.8 131.365 -137.779 131.787C-134.889 131.858 -131.911 131.906 -128.849 131.956H-128.832C-95.7851 132.488 -53.0031 133.176 -6.24707 165.386C13.8319 179.218 25.8989 193.23 32.2129 206.986C32.5399 207.698 32.8519 208.41 33.1489 209.122C30.4419 212.173 27.7419 215.088 25.1209 217.852C18.0879 207.98 7.84192 198.064 -6.39908 188.253C-53.3161 155.932 -96.2751 155.242 -129.327 154.712H-129.334H-129.34H-129.346C-132.408 154.663 -135.386 154.615 -138.274 154.543C-155.323 154.121 -169.162 152.869 -178.962 145.739C-188.741 138.624 -194.576 125.589 -195.411 101.392H-196C-195.163 125.638 -189.315 138.895 -179.314 146.172C-169.332 153.434 -155.291 154.674 -138.27 155.096C-135.376 155.168 -132.394 155.216 -129.328 155.265H-129.322C-96.2751 155.797 -53.4931 156.485 -6.73807 188.695C7.51793 198.515 17.7349 208.426 24.7219 218.272C24.3049 218.711 23.8899 219.145 23.4769 219.576L23.9219 219.953C24.2999 219.558 24.6809 219.159 25.0629 218.757C25.3219 219.127 25.5759 219.497 25.8249 219.867C21.5519 224.849 17.2299 229.502 13.1429 233.772L13.5869 234.149C17.6349 229.921 21.9189 225.31 26.1629 220.37C26.8949 221.472 27.5869 222.573 28.2399 223.674C20.9219 233.72 12.6619 242.815 5.18292 250.626L5.62793 251.003C13.0489 243.252 21.2619 234.216 28.5639 224.224C29.5739 225.958 30.4889 227.689 31.3119 229.416C22.4659 244.831 10.1959 258.6 -0.480072 269.75L-0.03508 270.127C10.5509 259.07 22.7489 245.397 31.6169 230.065C31.6519 230.142 31.6879 230.218 31.7229 230.295C32.7199 232.467 33.5739 234.633 34.2929 236.791C25.9569 257.7 9.60992 276.346 -4.10608 290.671L-3.66107 291.048C9.90593 276.878 26.1179 258.413 34.5769 237.665C35.4119 240.298 36.0469 242.919 36.4999 245.526C36.3909 246.058 36.2759 246.588 36.1549 247.118C30.2589 272.858 10.2699 295.953 -6.01308 312.959L-5.56807 313.336C10.7109 296.333 30.7999 273.145 36.7309 247.251L36.7569 247.136C37.9119 255.069 37.3969 262.862 35.6639 270.427C29.7679 296.167 9.77893 319.262 -6.50307 336.268L-6.05907 336.645ZM42.1729 201.623L42.2049 201.454C42.1639 201.543 42.1229 201.632 42.0819 201.721L42.1729 201.623ZM39.5089 204.495C38.3329 205.751 37.1699 206.977 36.0239 208.173L36.4689 208.55C37.4909 207.482 38.5289 206.389 39.5779 205.273C39.5829 205.341 39.5879 205.409 39.5939 205.477C38.2569 208.079 36.8139 210.638 35.2849 213.151C34.9739 212.227 34.6379 211.303 34.2779 210.376C36.0289 208.08 37.7389 205.73 39.3869 203.329C39.4319 203.718 39.4729 204.107 39.5089 204.495ZM40.3629 203.581L40.0429 203.925C39.9969 203.481 39.9459 203.037 39.8899 202.593C40.4479 201.769 40.9989 200.94 41.5419 200.105C41.9229 199.629 42.3029 199.151 42.6819 198.671C42.6629 198.801 42.6429 198.932 42.6219 199.062C42.0289 200.443 41.4019 201.812 40.7439 203.171C40.6169 203.308 40.4899 203.445 40.3629 203.581ZM41.2469 203.485C41.4799 203.233 41.7139 202.981 41.9479 202.727C41.8649 203.122 41.7779 203.515 41.6879 203.909C41.3009 205.597 40.8539 207.273 40.3509 208.938C40.3289 207.828 40.2769 206.716 40.1929 205.6C40.5519 204.898 40.9039 204.193 41.2469 203.485ZM33.8229 209.24C35.0629 207.839 36.3049 206.409 37.5419 204.951C36.3939 206.571 35.2199 208.168 34.0259 209.74C33.9589 209.574 33.8919 209.407 33.8229 209.24ZM25.4629 218.336C28.0499 215.61 30.7179 212.734 33.3959 209.722L33.4439 209.841L33.4819 209.937C33.5079 210.001 33.5339 210.066 33.5599 210.131L33.6169 210.277C31.2059 213.429 28.7169 216.48 26.2089 219.418C25.9649 219.057 25.7159 218.697 25.4629 218.336ZM26.5479 219.92C27.2719 221.004 27.9569 222.088 28.6059 223.17C30.8039 220.129 32.9139 217.002 34.8879 213.798C34.5739 212.839 34.2329 211.878 33.8649 210.915C31.4799 214.021 29.0219 217.027 26.5479 219.92ZM35.5259 213.883C36.9889 211.499 38.3769 209.072 39.6709 206.607C39.7529 208.003 39.7849 209.394 39.7699 210.78C38.9139 213.387 37.9249 215.963 36.8219 218.503C36.4559 216.967 36.0249 215.427 35.5259 213.883ZM28.9309 223.719C31.0939 220.738 33.1729 217.674 35.1239 214.534C35.6329 216.159 36.0669 217.78 36.4299 219.395C35.0039 222.593 33.3999 225.733 31.6579 228.808C30.8379 227.115 29.9299 225.418 28.9309 223.719ZM32.1439 229.834L32.1959 229.944L32.2629 230.091C33.1629 232.05 33.9469 234.006 34.6219 235.955C35.7939 232.927 36.7969 229.852 37.5979 226.737C37.3969 224.624 37.0799 222.5 36.6389 220.367C35.2319 223.453 33.6629 226.485 31.9669 229.455C32.0269 229.581 32.0859 229.707 32.1439 229.834ZM37.0439 219.467C37.4579 221.342 37.7769 223.21 38.0059 225.069L38.0299 224.967L38.0619 224.83C38.9689 220.868 39.5429 216.843 39.7169 212.768C38.9189 215.027 38.0229 217.26 37.0439 219.467ZM34.9159 236.824C36.0009 234.085 36.9499 231.306 37.7389 228.493C38.0809 233.728 37.7249 238.893 36.8029 243.963C36.3289 241.594 35.7039 239.214 34.9159 236.824ZM93.1379 133.646C87.2069 159.54 67.1179 182.728 50.8389 199.731L50.3939 199.354C66.6769 182.348 86.6659 159.253 92.5619 133.513C95.5079 120.652 94.9339 107.134 88.6199 93.3813C82.3059 79.6263 70.2389 65.6133 50.1599 51.7813C3.40393 19.5715 -39.3781 18.8832 -72.4241 18.3516C-75.4921 18.3022 -78.4771 18.2542 -81.3721 18.1824C-98.3931 17.7607 -112.435 16.5202 -122.416 9.25839C-132.418 1.98159 -138.265 -11.2753 -139.102 -35.5214L-138.513 -35.521C-137.678 -11.324 -131.844 1.71069 -122.064 8.82569C-112.264 15.9557 -98.4251 17.2073 -81.3761 17.6298C-78.4851 17.7014 -75.5041 17.7493 -72.438 17.7984L-72.4301 17.7986C-39.377 18.329 3.58093 19.0183 50.4989 51.3393C70.6419 65.2153 82.7919 79.3043 89.1609 93.1773C95.5299 107.052 96.1059 120.69 93.1379 133.646ZM66.5499 193.016C82.8289 176.013 102.918 152.826 108.849 126.931C111.817 113.975 111.241 100.337 104.872 86.4623C98.5029 72.5893 86.3529 58.5013 66.2099 44.6243C19.2919 12.3037 -23.666 11.6144 -56.7191 11.084C-59.7881 11.0347 -62.7721 10.9868 -65.6651 10.9152C-82.7141 10.4927 -96.5531 9.24109 -106.353 2.11109C-116.133 -5.00391 -121.967 -18.0386 -122.802 -42.2357L-123.391 -42.2361C-122.554 -17.9898 -116.707 -4.73301 -106.705 2.54369C-96.7241 9.8056 -82.6821 11.046 -65.6611 11.4678C-62.7771 11.5393 -59.8051 11.5872 -56.7491 11.6364L-56.7191 11.6369L-56.7141 11.637C-23.6671 12.1686 19.1149 12.8569 65.8709 45.0663C85.9499 58.8983 98.0169 72.9113 104.331 86.6663C110.645 100.419 111.219 113.937 108.273 126.798C102.377 152.539 82.3879 175.634 66.1049 192.639L66.5499 193.016ZM125.456 121.731C119.525 147.625 99.4359 170.813 83.1569 187.816L82.7119 187.439C98.9939 170.433 118.984 147.338 124.88 121.597C127.825 108.736 127.252 95.2193 120.938 81.4663C114.624 67.7103 102.557 53.6983 82.4779 39.8663C35.7219 7.6561 -7.06006 6.96779 -40.1071 6.43619C-43.175 6.38679 -46.1591 6.33879 -49.054 6.26709C-66.075 5.84529 -80.1171 4.6048 -90.0981 -2.65701C-100.1 -9.93381 -105.947 -23.1906 -106.784 -47.4368L-106.195 -47.4365C-105.36 -23.2394 -99.5261 -10.2047 -89.7461 -3.08971C-79.9461 4.04029 -66.1071 5.29189 -49.058 5.71439C-46.165 5.78609 -43.1811 5.83399 -40.1121 5.88319C-7.05905 6.4136 35.8989 7.10289 82.8169 39.4243C102.96 53.3003 115.11 67.3893 121.478 81.2613C127.848 95.1373 128.424 108.774 125.456 121.731ZM100.29 183.557C116.569 166.554 136.658 143.366 142.589 117.472C145.557 104.516 144.981 90.8783 138.611 77.0033C132.243 63.1303 120.093 49.0423 99.9499 35.1653C53.0319 2.84439 10.0739 2.1551 -22.9791 1.62469C-26.0481 1.57549 -29.032 1.5276 -31.925 1.45589C-48.9741 1.03339 -62.8131 -0.218208 -72.6131 -7.34821C-82.3931 -14.4632 -88.2271 -27.4979 -89.0621 -51.695L-89.6511 -51.6954C-88.8141 -27.4492 -82.9671 -14.1923 -72.9651 -6.91561C-62.9841 0.346291 -48.942 1.58679 -31.9211 2.00849C-29.0261 2.08029 -26.0421 2.12829 -22.9741 2.17769C10.0729 2.70929 52.8549 3.39759 99.6109 35.6073C119.69 49.4393 131.757 63.4523 138.071 77.2073C144.385 90.9603 144.959 104.478 142.013 117.339C136.117 143.079 116.128 166.174 99.8449 183.18L100.29 183.557ZM159.972 113.674C154.041 139.568 133.952 162.756 117.672 179.759L117.228 179.382C133.51 162.377 153.499 139.282 159.395 113.541C162.341 100.68 161.767 87.1623 155.454 73.4093C149.139 59.6543 137.073 45.6413 116.994 31.8093C70.2379 -0.400116 27.4559 -1.08841 -5.59108 -1.62011C-8.65907 -1.66941 -11.6431 -1.71751 -14.5391 -1.78921C-31.5591 -2.21101 -45.6011 -3.45151 -55.5821 -10.7133C-65.5841 -17.9901 -71.4321 -31.2469 -72.2681 -55.4931L-71.679 -55.4927C-70.8441 -31.2957 -65.01 -18.261 -55.231 -11.146C-45.4311 -4.01601 -31.592 -2.76441 -14.5421 -2.34191C-11.649 -2.27021 -8.66507 -2.22231 -5.59607 -2.17311C27.4559 -1.64271 70.4149 -0.953308 117.332 31.3673C137.475 45.2443 149.626 59.3323 155.994 73.2053C162.364 87.0803 162.939 100.718 159.972 113.674ZM135.095 176.039C151.374 159.036 171.463 135.848 177.394 109.954C180.362 96.9983 179.786 83.3603 173.416 69.4853C167.048 55.6123 154.898 41.5243 134.755 27.6473C87.8369 -4.67361 44.8789 -5.36291 11.8259 -5.89331C8.75693 -5.94251 5.77293 -5.99041 2.87993 -6.06211C-14.1691 -6.48461 -28.0081 -7.73621 -37.808 -14.8662C-47.588 -21.9812 -53.4221 -35.0159 -54.257 -59.213L-54.8461 -59.2133C-54.0091 -34.9671 -48.1621 -21.7103 -38.1601 -14.4335C-28.1791 -7.17171 -14.1371 -5.93121 2.88393 -5.50941C5.77893 -5.43771 8.76294 -5.38971 11.8309 -5.34031C44.8779 -4.80871 87.6599 -4.12041 134.416 28.0893C154.495 41.9213 166.562 55.9343 172.876 69.6893C179.19 83.4423 179.763 96.9603 176.818 109.821C170.922 135.562 150.933 158.656 134.65 175.662L135.095 176.039ZM194.707 106.023C188.776 131.918 168.687 155.105 152.407 172.108L151.963 171.732C168.245 154.726 188.234 131.631 194.13 105.89C197.076 93.0293 196.502 79.5113 190.189 65.7593C183.874 52.0033 171.807 37.9913 151.728 24.1583C104.973 -8.05101 62.1909 -8.73921 29.1439 -9.27091L29.1389 -9.27101L29.1079 -9.27151C26.0529 -9.32071 23.0809 -9.36861 20.1959 -9.44001C3.17592 -9.86181 -10.8661 -11.1023 -20.847 -18.3641C-30.8491 -25.6409 -36.6971 -38.8977 -37.5341 -63.1439L-36.9441 -63.1435C-36.1091 -38.9465 -30.2751 -25.9118 -20.4961 -18.7968C-10.6961 -11.6668 3.14293 -10.4152 20.1919 -9.99271C23.0829 -9.9211 26.0629 -9.87331 29.1289 -9.82411L29.1329 -9.82401L29.1389 -9.82391C62.1909 -9.2935 105.15 -8.6042 152.067 23.7173C172.21 37.5933 184.36 51.6823 190.729 65.5543C197.099 79.4303 197.674 93.0673 194.707 106.023ZM169.489 167.756C185.768 150.753 205.857 127.565 211.788 101.671C214.756 88.7153 214.181 75.0773 207.811 61.2023C201.442 47.3293 189.292 33.2413 169.149 19.3646C122.232 -12.9564 79.2729 -13.6458 46.2209 -14.1762C43.1509 -14.2254 40.1679 -14.2733 37.2739 -14.345C20.2249 -14.7675 6.38593 -16.0191 -3.41408 -23.149C-13.1931 -30.2641 -19.0281 -43.2988 -19.8631 -67.4958L-20.4521 -67.4962C-19.6151 -43.25 -13.7671 -29.9932 -3.76607 -22.7164C6.21593 -15.4546 20.2569 -14.2141 37.2779 -13.7923C40.1739 -13.7205 43.1579 -13.6725 46.2259 -13.6232C79.2719 -13.0915 122.055 -12.4032 168.81 19.8064C188.889 33.6383 200.956 47.6513 207.271 61.4063C213.584 75.1593 214.158 88.6773 211.212 101.538C205.316 127.279 185.327 150.373 169.045 167.379L169.489 167.756ZM228.553 96.7523C222.622 122.646 202.533 145.834 186.253 162.837L185.809 162.46C202.091 145.454 222.081 122.359 227.977 96.6183C230.922 83.7573 230.349 70.2403 224.035 56.4873C217.72 42.7313 205.654 28.7193 185.575 14.8869C138.819 -17.3228 96.0369 -18.0111 62.9899 -18.5428C59.9219 -18.5921 56.9379 -18.6401 54.0429 -18.7119C37.0219 -19.1337 22.9799 -20.3742 12.9989 -27.636C2.99693 -34.9128 -2.85007 -48.1696 -3.68707 -72.4158L-3.09807 -72.4154C-2.26306 -48.2183 3.57092 -35.1836 13.3499 -28.0686C23.1509 -20.9386 36.9899 -19.6871 54.0389 -19.2646C56.9319 -19.1928 59.9159 -19.145 62.9849 -19.0957C96.0379 -18.5653 138.996 -17.876 185.913 14.4451C206.056 28.3213 218.207 42.4103 224.575 56.2823C230.945 70.1583 231.521 83.7953 228.553 96.7523ZM202.64 157.252C218.919 140.249 239.008 117.062 244.939 91.1673C247.907 78.2113 247.331 64.5743 240.962 50.6983C234.593 36.8253 222.443 22.7373 202.3 8.86089C155.382 -23.4602 112.424 -24.1495 79.3719 -24.6799C76.3019 -24.7292 73.3189 -24.7771 70.4249 -24.8487C53.3759 -25.2713 39.5369 -26.5228 29.7369 -33.6528C19.9569 -40.7678 14.1229 -53.8025 13.2879 -77.9996L12.6989 -78C13.5359 -53.7538 19.3839 -40.497 29.3849 -33.2202C39.3669 -25.9584 53.4079 -24.7179 70.4289 -24.2961C73.3249 -24.2243 76.3089 -24.1763 79.3769 -24.127C112.423 -23.5953 155.206 -22.907 201.961 9.30269C222.04 23.1353 234.107 37.1473 240.422 50.9033C246.735 64.6553 247.309 78.1733 244.363 91.0343C238.467 116.775 218.478 139.87 202.196 156.876L202.64 157.252Z" fill="white" stroke="white" stroke-width="2" mask="url(#path-1-inside-1_12_89)"/>
</svg>
